<svg width="887" height="272" viewBox="0 0 887 272" fill="none" xmlns="http://www.w3.org/2000/svg">
<path d="M1 72C2.99 73.32 6.98 77.98 9.825 81.985C12.3027 85.473 12.66 90.64 14.825 99.465C16.7928 107.486 16.66 115.64 17.165 127.62C17.4632 134.693 18.66 140.64 19.165 145.815C19.586 150.129 21 153.98 21.995 159.645C22.8911 164.747 24 170.64 24.995 175.315C26.1948 180.952 26.66 184.98 27.33 194.46C27.9752 203.589 31.66 209.98 33.16 213.985C35.4321 220.051 41.64 227.64 45.985 230.825C47.7293 232.104 50.32 232 52.815 231.67C57.185 231.092 58.32 225.02 59.995 221.015C61.6239 217.12 62.66 213.02 63.995 209.015C65.4022 204.793 65.66 200.02 67.825 196.015C69.99 192.01 72.66 189.01 74.815 187.51C77.9659 185.317 81.99 187.66 83.985 189.32C88.755 193.289 89.66 198.98 92.155 203.645C95.9288 210.701 96.66 214.98 98.99 218.985C101.323 222.994 104.64 228.3 109.315 235.305C114.874 243.635 122.62 250.62 128.815 254.825C132.951 257.632 141.28 261.64 151.13 265.32C162.068 269.407 170.97 271 176.13 270.34C180.127 269.829 187.6 256.44 198.59 238.295C205.571 226.769 207.33 220.02 208.16 216.195C208.941 212.596 212.31 199.45 216.8 178.815C221.998 154.927 225.66 148.7 227.825 144.015C229.8 139.742 232.98 135.02 235.99 130.85C239.514 125.967 247.96 123.68 254.645 121.34C258.794 119.888 262.98 120 268.975 118.84C275.671 117.544 279.98 113.68 283.985 111.175C284.939 110.579 285.98 110.34 286.985 110.665C291.743 112.204 293.66 116.98 297.815 123.475C300.898 128.295 303.32 132.64 305.825 136.985C308.176 141.063 309.66 145.98 310.995 152.305C312.596 159.888 312.66 165.3 313.165 171.81C313.576 177.103 315 182.3 316.825 186.985C318.373 190.959 322.32 193.98 326.15 196.16C330.884 198.855 334.98 200.66 338.985 202.825C345.133 206.148 354.98 207.66 358.985 207.34C364.864 206.87 367.64 197.04 370.825 191.185C373.853 185.618 377.98 174.06 379.165 167.02C380.062 161.69 380.66 157.02 381.165 153.015C381.839 147.667 383.32 139.04 384.33 133.52C385.597 126.594 387.98 118.06 390.16 109.03C392.427 99.6406 395.32 90.36 396.83 86.015C398.279 81.8459 399.66 75.7 401.66 68.2C404.291 58.3328 404.32 49.4 405.33 41.525C406.411 33.0935 409.66 27.36 411.49 22.85C413.892 16.9302 418.98 14.02 423.815 9.18501C427.828 5.17161 432.64 3.34001 437.315 2.17001C443.782 0.551413 449.98 3.66001 457.29 6.64501C464.6 9.63001 480.32 22.98 484.815 27.15C489.501 31.4972 492.884 39.1961 494.99 43.815C497.096 48.4339 498.66 54.3 499.165 59.815C499.553 64.0549 500.66 68.64 501.33 74.64C502.275 83.1028 503.66 86.98 504.165 91.15C504.802 96.4112 507.32 101.64 508.995 107.145C510.857 113.264 512.66 119.3 514.825 125.975C516.936 132.484 517.66 139.3 520.655 148.465C523.071 155.858 524.66 162.64 525.995 167.98C527.33 173.32 529.32 181.94 530.995 188.98C532.217 194.116 535.32 198.64 539.815 203.98C544.015 208.969 547.98 212.98 551.985 217.98C555.751 222.682 557.32 226.98 559.16 230.985C561.864 236.871 566.98 243.98 569.325 247.82C571.851 251.956 576.98 254.32 580.985 256.825C584.612 259.094 588.98 259.66 604.105 259.835C612.075 259.927 616.64 257.34 621.815 254.845C626.921 252.383 631.62 240.74 639.475 225.385C641.895 220.655 643.66 217.68 644.825 215.185C645.807 213.082 651.94 199.46 661.105 179.965C665.763 170.058 667.66 166.02 670.155 160.36C673.883 151.903 675.32 146.36 677.825 139.195C681.54 128.569 685.66 113.7 687.99 107.36C691.123 98.836 692.66 94.02 694.825 88.19C696.813 82.8355 698.98 74.72 701.16 67.19C702.722 61.7954 705.32 58.02 707.825 53.85C710.435 49.5051 710.623 45.1023 712.325 41.345C714.027 37.5877 721.64 40.66 726.15 41.995C731.358 43.5367 735.98 46.32 738.16 49.985C740.638 54.1515 741 58.98 741.995 63.815C743.647 71.8436 742.34 84.64 741.835 94.295C741.624 98.325 741 104.62 741.33 112.115C741.614 118.558 748.64 121.32 753.315 123.655C760.071 127.029 761.98 134.96 764.66 139.985C766.571 143.568 766 164.48 769.48 174.83C771.572 181.05 779.98 178.32 784.15 181.32C789.063 184.855 788.66 191.3 789.165 201.13C789.502 207.695 790.66 212.98 792.16 216.985C793.758 221.251 795.66 224.98 797.825 228.985C798.853 230.888 799.99 232.66 801.985 233.66C806.46 235.903 812.98 231.34 820.47 228.845C826.512 226.832 831.96 223.02 837.15 219.68C842.617 216.162 851.26 203.44 857.485 191.205C862.959 180.446 863.32 174.04 866.82 164.205C869.973 155.344 872.66 149.36 874.825 145.015C876.66 140.68 879.32 136.02 882.155 132.345C882.99 131.67 883.98 131.34 886 130" stroke="white" stroke-width="2" stroke-linecap="round"/>
</svg>
